# xmcd CD database file
#
# Track frame offsets:
#	150
#	30413
#	56963
#	87393
#	105428
#	127340
#
# Disc length: 2281 seconds
#
# Revision: 0
# Processed by: cddbd v1.5.1PL0 Copyright (c) Steve Scherf et al.
# Submitted via: CDex 1.51
#
DISCID=4e08e706
DTITLE=Herbie Hancock - jammin´
DYEAR=1900
DGENRE=Jazz
TTITLE0=jammin´ with herbie
TTITLE1=herbies blues
TTITLE2=rock your soul
TTITLE3=tcb with herbie
TTITLE4=soul power
TTITLE5=cat call
EXTD=
EXTT0=
EXTT1=
EXTT2=
EXTT3=
EXTT4=
EXTT5=
PLAYORDER=
